<?xml version="1.0" standalone="no"?>
<!DOCTYPE svg PUBLIC "-//W3C//DTD SVG 20010904//EN"
 "http://www.w3.org/TR/2001/REC-SVG-20010904/DTD/svg10.dtd">
<svg version="1.0" xmlns="http://www.w3.org/2000/svg"
 width="512.000000pt" height="512.000000pt" viewBox="0 0 512.000000 512.000000"
 preserveAspectRatio="xMidYMid meet">
<metadata>
Created by potrace 1.11, written by Peter Selinger 2001-2013
</metadata>
<g transform="translate(0.000000,512.000000) scale(0.100000,-0.100000)"
fill="#000000" stroke="none">
<path d="M1710 4873 c-30 -11 -63 -50 -126 -150 -35 -57 -94 -151 -131 -209
l-67 -107 -70 7 c-358 33 -403 31 -453 -19 -54 -54 -46 -100 48 -316 l60 -137
-39 -78 c-116 -231 -175 -546 -152 -819 14 -172 44 -315 106 -491 l35 -100
-46 -68 c-95 -143 -106 -317 -28 -476 69 -142 241 -249 403 -250 l55 -1 41
-84 41 -84 -588 -3 c-576 -3 -588 -3 -616 -24 -15 -11 -36 -37 -46 -57 -18
-35 -17 -40 3 -169 87 -562 169 -1047 180 -1068 8 -14 14 -46 15 -72 0 -35 6
-53 24 -72 l24 -26 1008 0 1008 0 124 45 c69 25 127 45 131 45 3 0 3 -20 -1
-45 l-6 -45 429 2 c236 0 414 3 397 5 -33 4 -33 4 -18 33 28 53 100 48 133
-10 l17 -30 104 2 c86 3 106 6 115 20 8 14 7 21 -6 34 -16 16 -19 16 -55 -9
-21 -15 -53 -30 -71 -33 -29 -6 -32 -4 -32 17 0 14 14 42 32 63 l32 39 113 -7
c132 -7 153 -17 180 -82 16 -39 22 -44 50 -44 l31 0 -19 52 c-10 28 -30 63
-44 78 -22 23 -23 28 -11 45 12 16 17 17 44 6 44 -19 108 -92 123 -140 12 -40
13 -41 56 -41 l45 0 -7 32 c-19 95 -97 191 -186 233 -31 14 -60 37 -75 59 -14
20 -43 48 -64 61 -36 23 -40 29 -40 68 0 81 -32 89 -47 13 -13 -59 -30 -55
-38 9 -10 86 -35 72 -59 -35 -4 -19 -20 -31 -61 -49 -32 -14 -68 -39 -85 -59
-16 -20 -31 -34 -33 -31 -2 2 -21 47 -42 99 -62 155 -153 350 -196 423 -45 76
-96 116 -186 144 -29 9 -53 19 -53 22 0 3 35 23 79 43 243 114 455 320 575
556 l37 72 57 0 c168 0 338 108 409 260 34 71 58 193 48 239 -3 17 -2 32 4 36
50 31 111 368 111 616 0 289 -71 604 -188 837 l-41 80 61 23 c70 28 133 84
143 128 35 160 -507 530 -1025 699 -487 159 -967 172 -1385 38 -44 -14 -82
-22 -86 -18 -3 4 -18 43 -34 87 -61 172 -101 215 -175 188z m516 -1850 c158
-136 369 -286 552 -394 l93 -54 -58 -19 c-49 -16 -88 -19 -248 -20 -169 0
-197 3 -255 22 -36 12 -73 22 -82 22 -10 0 -34 9 -55 19 -47 24 -357 83 -433
83 -30 0 -68 -5 -85 -12 -26 -9 -28 -9 -15 3 175 159 246 223 355 316 71 61
132 111 135 111 3 0 46 -35 96 -77z m-441 -418 c38 -12 35 -13 -72 -14 -62 -1
-113 1 -113 4 0 9 65 23 105 23 22 0 58 -5 80 -13z m1540 -5 c3 -5 1 -10 -4
-10 -6 0 -11 5 -11 10 0 6 2 10 4 10 3 0 8 -4 11 -10z m-1222 -90 c140 -10
172 -20 184 -55 11 -33 4 -162 -13 -235 -21 -92 -64 -143 -142 -167 -49 -16
-98 -18 -364 -17 -403 1 -412 4 -436 149 -6 33 -13 89 -16 126 l-6 65 74 65
c72 63 76 64 143 70 118 10 433 9 576 -1z m1500 -186 l187 -184 -14 -34 c-25
-60 -52 -64 -407 -67 -270 -3 -322 -1 -369 14 -88 26 -128 74 -149 177 -29
150 -23 238 19 260 35 19 143 12 204 -14 l58 -23 -32 -6 c-17 -4 -52 -16 -76
-26 -50 -23 -60 -47 -15 -38 l29 6 -34 -51 c-28 -41 -34 -59 -32 -92 3 -37 6
-41 32 -44 27 -3 28 -2 23 25 -7 40 29 99 76 125 17 8 17 7 7 -12 -17 -33 -14
-105 6 -140 25 -41 94 -74 141 -67 70 12 114 60 123 134 l5 45 40 -35 c39 -34
39 -34 17 -46 -22 -12 -30 -45 -12 -56 11 -7 122 65 118 76 -8 22 -158 142
-207 166 -31 14 -50 28 -43 30 7 3 19 18 27 34 13 24 22 29 53 29 34 -1 50
-13 225 -186z m-918 92 c44 -19 58 -43 99 -162 43 -128 57 -156 103 -193 76
-63 101 -66 474 -65 323 0 338 1 379 22 24 12 46 19 49 17 7 -8 -29 -202 -51
-275 -115 -374 -502 -684 -946 -756 -150 -24 -448 -21 -490 5 -7 4 -27 92 -45
204 -31 182 -35 199 -62 227 -16 17 -45 35 -64 40 -20 5 -166 10 -327 10 -334
0 -298 -11 -362 110 -48 90 -84 202 -106 329 -23 136 -23 135 20 106 20 -13
52 -28 73 -32 20 -3 178 -7 351 -7 287 -1 320 1 375 19 97 32 133 75 184 227
44 128 71 170 116 181 47 11 197 6 230 -7z m-1690 -117 c19 -37 35 -54 61 -65
42 -18 66 -12 117 27 l37 30 0 -59 c0 -113 30 -353 57 -451 6 -24 6 -24 -55
-19 -209 19 -366 250 -307 454 15 51 53 134 62 134 1 0 14 -23 28 -51z m3232
-189 c-7 -100 -40 -175 -106 -240 -69 -68 -135 -101 -220 -108 -57 -4 -64 -3
-58 11 7 19 32 156 42 230 6 47 7 48 38 42 55 -10 92 22 117 102 11 37 24 94
27 126 l6 59 79 -79 80 -78 -5 -65z m-2107 -713 c27 -13 31 -33 79 -332 11
-71 38 -240 60 -375 81 -504 77 -467 56 -490 -18 -20 -28 -20 -955 -20 -763 0
-940 2 -954 13 -19 14 -22 31 -91 462 -14 88 -34 214 -45 280 -11 66 -29 179
-40 250 -11 72 -23 140 -25 153 -4 15 2 30 19 47 l25 25 923 0 c720 0 928 -3
948 -13z m734 -492 c-4 -8 -49 -45 -102 -81 -53 -37 -130 -94 -171 -126 -41
-32 -80 -56 -88 -54 -7 3 -46 30 -87 61 -76 58 -80 64 -92 151 l-6 51 58 -9
c97 -16 444 -1 491 21 1 1 0 -6 -3 -14z m-84 -150 c0 -2 -7 -22 -16 -44 -12
-32 -40 -58 -135 -130 l-120 -91 -73 55 c-65 48 -74 58 -78 92 -3 21 -5 39 -4
40 1 0 36 -25 79 -57 l78 -59 92 72 c51 39 108 84 127 99 33 26 50 34 50 23z
m-49 -163 c-5 -17 -17 -80 -26 -139 -9 -59 -18 -118 -21 -130 -4 -22 -8 -23
-135 -23 -101 0 -131 3 -135 14 -5 14 -43 240 -40 243 0 1 31 -21 69 -48 l67
-50 113 85 c61 46 113 83 114 82 2 -1 -1 -16 -6 -34z m741 -199 c15 -14 14
-18 -15 -56 -18 -23 -41 -61 -51 -85 -10 -23 -25 -42 -33 -42 -11 0 -9 7 6 29
26 36 26 48 2 63 -18 11 -18 12 3 29 l21 18 -38 71 -38 72 63 -43 c35 -23 71
-48 80 -56z m388 -77 c0 -7 7 -19 15 -26 13 -10 19 -10 34 4 18 16 20 15 45
-14 27 -33 34 -74 14 -86 -6 -4 -59 -6 -117 -5 -80 2 -110 6 -123 18 -37 33
-12 96 45 112 49 14 87 13 87 -3z m-1370 -100 c0 -2 -27 -13 -60 -25 -33 -11
-59 -17 -57 -13 2 4 7 15 10 25 5 13 18 17 57 17 27 0 50 -2 50 -4z m190 -14
c0 -27 -114 -65 -165 -54 l-39 8 84 31 c100 37 120 39 120 15z m973 -69 c-24
-31 -26 -32 -49 -16 -26 17 -26 19 20 71 l20 23 17 -23 c16 -21 16 -23 -8 -55z
m-1205 -24 c14 0 13 -2 -3 -8 -23 -9 -41 11 -28 32 5 9 8 7 11 -5 2 -10 11
-18 20 -19z m-93 -14 c0 -20 -8 -20 -954 -23 -976 -2 -1000 -1 -970 34 10 12
167 14 968 12 948 -3 956 -3 956 -23z"/>
<path d="M1779 2426 c-86 -35 -229 -145 -228 -176 0 -8 23 -30 51 -48 43 -28
54 -31 65 -19 12 11 10 18 -8 41 -12 15 -18 31 -13 34 5 4 23 19 39 34 l30 27
-3 -37 c-9 -107 107 -183 205 -134 69 36 98 108 69 175 -14 35 -14 37 2 28 42
-23 77 -72 77 -109 0 -30 4 -38 22 -40 14 -2 26 4 33 18 15 28 -10 103 -47
142 l-27 28 33 -6 c53 -11 34 17 -30 43 -76 32 -193 31 -270 -1z"/>
<path d="M2462 2098 c-8 -8 -12 -55 -12 -155 0 -134 1 -143 21 -153 26 -15 63
-6 112 26 38 25 50 60 23 70 -8 3 -32 -6 -53 -20 -21 -14 -42 -26 -47 -26 -4
0 -7 59 -5 132 3 113 2 133 -11 136 -9 1 -21 -3 -28 -10z"/>
<path d="M2269 1496 c-21 -22 -1 -149 40 -242 26 -58 88 -124 139 -146 29 -13
65 -19 114 -19 151 0 249 92 287 269 13 64 14 129 2 136 -16 11 -571 12 -582
2z m518 -108 c-21 -177 -173 -283 -312 -219 -22 10 -50 29 -62 42 -31 34 -70
125 -78 181 l-7 47 232 -2 232 -2 -5 -47z"/>
<path d="M2049 1274 c-7 -9 -9 -28 -5 -52 3 -20 40 -236 80 -479 41 -244 77
-447 81 -453 3 -5 15 -10 26 -10 14 0 19 7 19 28 0 24 -141 890 -155 948 -6
28 -30 37 -46 18z"/>
<path d="M3798 725 c-60 -41 -118 -184 -89 -219 20 -24 40 -7 57 49 27 94 81
150 127 132 31 -12 58 -85 64 -174 6 -89 18 -108 49 -82 24 19 14 168 -14 232
-37 84 -122 111 -194 62z"/>
<path d="M4364 476 c-105 -51 -184 -116 -184 -152 0 -33 19 -30 72 10 49 37
178 112 178 102 0 -3 -27 -49 -60 -103 -33 -53 -60 -105 -60 -114 0 -29 26
-41 87 -39 100 3 102 2 48 -28 -34 -18 -50 -33 -50 -47 0 -33 40 -30 108 9
102 57 125 87 91 120 -12 12 -37 16 -105 16 -49 0 -89 2 -89 3 0 2 27 51 60
108 62 107 68 127 48 147 -20 20 -51 14 -144 -32z"/>
</g>
</svg>
